# xmcd
#
# Track frame offsets:
# 150
# 8066
# 32997
# 52173
# 63494
# 109675
#
# Disc length: 1584 seconds
#
#
# Revision: 0
# Processed by: cddbd v1.4PL0 Copyright (c) Steve Scherf et al.
# Submitted via: FreeRIP 2.40 
#
DISCID=4d062e06
DTITLE=Annieville Blues - Live - Augusta Blues Week 2003
DYEAR=2003
DGENRE=Blues
TTITLE0=Introducing Annieville
TTITLE1=In The Beginning - 'All Them Chords' Boogie
TTITLE2=Annie's Jogo Blues
TTITLE3=Sweet On Me
TTITLE4=Scenes From a Childhood - 3 Harps Around My 88's (Texas Boogie Shuffle)
TTITLE5=Chopsticks ... The Hard Way!
EXTD=
EXTT0=
EXTT1=
EXTT2=
EXTT3=
EXTT4=
EXTT5=
PLAYORDER=
